<mxfile host="app.diagrams.net" agent="Mozilla/5.0 (Macintosh; Intel Mac OS X 10_15_7) AppleWebKit/537.36 (KHTML, like Gecko) Chrome/136.0.0.0 Safari/537.36" version="27.0.6">
  <diagram name="‫עמוד-1‬" id="-gEzmcpE0c5fm8nJ3Jp6">
    <mxGraphModel dx="1426" dy="674" grid="1" gridSize="10" guides="1" tooltips="1" connect="1" arrows="1" fold="1" page="1" pageScale="1" pageWidth="827" pageHeight="1169" math="0" shadow="0">
      <root>
        <mxCell id="0" />
        <mxCell id="1" parent="0" />
        <mxCell id="PjI24mg2UevM7W_kPiNk-25" value="א" style="rounded=0;whiteSpace=wrap;html=1;rotation=-90;" parent="1" vertex="1">
          <mxGeometry x="-60" y="85" width="390" height="240" as="geometry" />
        </mxCell>
        <mxCell id="PjI24mg2UevM7W_kPiNk-18" value="" style="edgeStyle=orthogonalEdgeStyle;rounded=0;orthogonalLoop=1;jettySize=auto;html=1;" parent="1" source="PjI24mg2UevM7W_kPiNk-4" target="PjI24mg2UevM7W_kPiNk-16" edge="1">
          <mxGeometry relative="1" as="geometry" />
        </mxCell>
        <mxCell id="PjI24mg2UevM7W_kPiNk-4" value="" style="image;html=1;image=img/lib/clip_art/computers/Monitor_128x128.png" parent="1" vertex="1">
          <mxGeometry x="25" y="50" width="65" height="60" as="geometry" />
        </mxCell>
        <mxCell id="PjI24mg2UevM7W_kPiNk-20" value="" style="edgeStyle=orthogonalEdgeStyle;rounded=0;orthogonalLoop=1;jettySize=auto;html=1;" parent="1" source="PjI24mg2UevM7W_kPiNk-16" target="PjI24mg2UevM7W_kPiNk-19" edge="1">
          <mxGeometry relative="1" as="geometry">
            <Array as="points">
              <mxPoint x="60" y="150" />
              <mxPoint x="60" y="350" />
            </Array>
          </mxGeometry>
        </mxCell>
        <mxCell id="PjI24mg2UevM7W_kPiNk-22" value="" style="edgeStyle=orthogonalEdgeStyle;rounded=0;orthogonalLoop=1;jettySize=auto;html=1;" parent="1" source="PjI24mg2UevM7W_kPiNk-16" target="PjI24mg2UevM7W_kPiNk-21" edge="1">
          <mxGeometry relative="1" as="geometry">
            <Array as="points">
              <mxPoint x="40" y="150" />
              <mxPoint x="40" y="230" />
              <mxPoint x="90" y="230" />
              <mxPoint x="90" y="300" />
            </Array>
          </mxGeometry>
        </mxCell>
        <mxCell id="PjI24mg2UevM7W_kPiNk-24" value="" style="edgeStyle=orthogonalEdgeStyle;rounded=0;orthogonalLoop=1;jettySize=auto;html=1;" parent="1" source="PjI24mg2UevM7W_kPiNk-16" target="PjI24mg2UevM7W_kPiNk-23" edge="1">
          <mxGeometry relative="1" as="geometry">
            <Array as="points">
              <mxPoint x="200" y="200" />
              <mxPoint x="202" y="200" />
            </Array>
          </mxGeometry>
        </mxCell>
        <mxCell id="PjI24mg2UevM7W_kPiNk-16" value="MAIN PROCESS" style="rounded=1;whiteSpace=wrap;html=1;" parent="1" vertex="1">
          <mxGeometry x="124" y="120" width="120" height="60" as="geometry" />
        </mxCell>
        <mxCell id="PjI24mg2UevM7W_kPiNk-19" value="ARP SPOOFING" style="whiteSpace=wrap;html=1;rounded=1;" parent="1" vertex="1">
          <mxGeometry x="160" y="330" width="70" height="50" as="geometry" />
        </mxCell>
        <mxCell id="PjI24mg2UevM7W_kPiNk-21" value="MITM" style="rounded=1;whiteSpace=wrap;html=1;" parent="1" vertex="1">
          <mxGeometry x="177" y="280" width="50" height="40" as="geometry" />
        </mxCell>
        <mxCell id="PjI24mg2UevM7W_kPiNk-23" value="HTTP SERVER" style="rounded=1;whiteSpace=wrap;html=1;" parent="1" vertex="1">
          <mxGeometry x="160" y="210" width="84" height="55" as="geometry" />
        </mxCell>
        <mxCell id="PjI24mg2UevM7W_kPiNk-26" value="&lt;font style=&quot;font-size: 23px;&quot;&gt;שרת&lt;/font&gt;" style="text;html=1;align=center;verticalAlign=middle;whiteSpace=wrap;rounded=0;" parent="1" vertex="1">
          <mxGeometry x="100" y="20" width="90" height="30" as="geometry" />
        </mxCell>
        <mxCell id="PjI24mg2UevM7W_kPiNk-27" value="א" style="rounded=0;whiteSpace=wrap;html=1;rotation=-90;" parent="1" vertex="1">
          <mxGeometry x="560" width="240" height="240" as="geometry" />
        </mxCell>
        <mxCell id="PjI24mg2UevM7W_kPiNk-28" value="&lt;span style=&quot;font-size: 23px;&quot;&gt;לקוח (הורה)&lt;/span&gt;" style="text;html=1;align=center;verticalAlign=middle;whiteSpace=wrap;rounded=0;" parent="1" vertex="1">
          <mxGeometry x="635" y="20" width="90" height="30" as="geometry" />
        </mxCell>
        <mxCell id="PjI24mg2UevM7W_kPiNk-29" value="" style="image;html=1;image=img/lib/clip_art/computers/Monitor_128x128.png" parent="1" vertex="1">
          <mxGeometry x="615" y="90" width="130" height="120" as="geometry" />
        </mxCell>
        <mxCell id="PjI24mg2UevM7W_kPiNk-30" value="א" style="rounded=0;whiteSpace=wrap;html=1;rotation=-90;" parent="1" vertex="1">
          <mxGeometry x="560" y="250" width="240" height="240" as="geometry" />
        </mxCell>
        <mxCell id="PjI24mg2UevM7W_kPiNk-31" value="&lt;span style=&quot;font-size: 23px;&quot;&gt;ילד&lt;/span&gt;" style="text;html=1;align=center;verticalAlign=middle;whiteSpace=wrap;rounded=0;" parent="1" vertex="1">
          <mxGeometry x="635" y="270" width="90" height="30" as="geometry" />
        </mxCell>
        <mxCell id="PjI24mg2UevM7W_kPiNk-32" value="" style="image;html=1;image=img/lib/clip_art/computers/Monitor_128x128.png" parent="1" vertex="1">
          <mxGeometry x="615" y="340" width="130" height="120" as="geometry" />
        </mxCell>
        <mxCell id="HeMZF-qBA0hj9FQG5_EE-2" value="" style="shape=flexArrow;endArrow=classic;startArrow=classic;html=1;rounded=0;entryX=0.5;entryY=0;entryDx=0;entryDy=0;" edge="1" parent="1" target="PjI24mg2UevM7W_kPiNk-27">
          <mxGeometry width="100" height="100" relative="1" as="geometry">
            <mxPoint x="270" y="140" as="sourcePoint" />
            <mxPoint x="434" y="204.5" as="targetPoint" />
          </mxGeometry>
        </mxCell>
        <mxCell id="HeMZF-qBA0hj9FQG5_EE-3" value="&lt;font style=&quot;font-size: 21px;&quot;&gt;Main Data Exchange&lt;/font&gt;" style="text;html=1;align=center;verticalAlign=middle;whiteSpace=wrap;rounded=0;" vertex="1" parent="1">
          <mxGeometry x="320" y="55" width="160" height="70" as="geometry" />
        </mxCell>
      </root>
    </mxGraphModel>
  </diagram>
</mxfile>
